<?xml version="1.0" encoding="UTF-8"?>
<svg width="40px" height="40px" viewBox="0 0 40 40" version="1.1" xmlns="http://www.w3.org/2000/svg" xmlns:xlink="http://www.w3.org/1999/xlink">
    <!-- Generator: Sketch 64 (93537) - https://sketch.com -->
    <title>Combined Shape</title>
    <desc>Created with Sketch.</desc>
    <g id="MASTER" stroke="none" stroke-width="1" fill="none" fill-rule="evenodd">
        <g id="MEMORIES:-GRID" transform="translate(-1820.000000, -960.000000)" stroke-width="2">
            <g id="Toggle" transform="translate(1820.000000, 880.000000)">
                <g id="Grid" transform="translate(0.000000, 80.000000)">
                    <path d="M9,31 L1,31 L1,39 L9,39 L9,31 Z M24,31 L16,31 L16,39 L24,39 L24,31 Z M39,31 L31,31 L31,39 L39,39 L39,31 Z M9,16 L1,16 L1,24 L9,24 L9,16 Z M24,16 L16,16 L16,24 L24,24 L24,16 Z M39,16 L31,16 L31,24 L39,24 L39,16 Z M9,1 L1,1 L1,9 L9,9 L9,1 Z M24,1 L16,1 L16,9 L24,9 L24,1 Z M39,1 L31,1 L31,9 L39,9 L39,1 Z" id="Combined-Shape"></path>
                </g>
            </g>
        </g>
    </g>
</svg>