<?xml version="1.0" encoding="UTF-8"?>
<svg width="104px" height="226px" viewBox="0 0 104 226" version="1.1" xmlns="http://www.w3.org/2000/svg" xmlns:xlink="http://www.w3.org/1999/xlink">
    <!-- Generator: Sketch 61.2 (89653) - https://sketch.com -->
    <title>Icon: Explore</title>
    <desc>Created with Sketch.</desc>
    <g id="MASTER" stroke="none" stroke-width="1" fill="none" fill-rule="evenodd">
        <g id="LANDING:-COVER" transform="translate(-1618.000000, -799.000000)" stroke="#FFFFFF" stroke-width="4">
            <g id="Cover" transform="translate(171.000000, 81.000000)">
                <g id="Icon:-Explore" transform="translate(1449.000000, 720.000000)">
                    <path d="M90.3365517,46.7181379 C84.0482759,42.8264138 65.7131034,39.3491724 45.7827586,39.3491724 C20.4972414,39.3491724 0,43.836069 0,49.371931 C0,54.9064138 20.4972414,59.394 45.7827586,59.394 C45.7827586,59.394 114.191724,60.4567586 96.7662069,28.4546897" id="Stroke-1"></path>
                    <path d="M90.3365517,21.8905517 C84.0482759,17.9988276 65.7131034,14.5215862 45.7827586,14.5215862 C20.4972414,14.5215862 0,19.0084828 0,24.5443448 C0,30.0788276 20.4972414,34.5664138 45.7827586,34.5664138 C45.7827586,34.5664138 99.6075862,35.2498621 99.6075862,15.9643448 C99.6075862,-0.217724138 48.8958621,0.000130441822 48.8958621,0.000130441822" id="Stroke-3"></path>
                    <path d="M90.3365517,71.5457241 C84.0482759,67.654 65.7131034,64.1767586 45.7827586,64.1767586 C20.4972414,64.1767586 0,68.6636552 0,74.1995172 C0,79.734 20.4972414,84.2215862 45.7827586,84.2215862 C45.7827586,84.2215862 114.191724,85.2843448 96.7662069,53.2822759" id="Stroke-5"></path>
                    <path d="M90.3365517,96.3733103 C84.0482759,92.4815862 65.7131034,89.0043448 45.7827586,89.0043448 C20.4972414,89.0043448 0,93.4912414 0,99.0271034 C0,104.561586 20.4972414,109.049172 45.7827586,109.049172 C45.7827586,109.049172 114.191724,110.111931 96.7662069,78.1098621" id="Stroke-7"></path>
                    <path d="M90.3365517,121.200897 C84.0482759,117.309172 65.7131034,113.831931 45.7827586,113.831931 C20.4972414,113.831931 0,118.318828 0,123.85469 C0,129.389172 20.4972414,133.876759 45.7827586,133.876759 C45.7827586,133.876759 114.191724,134.939517 96.7662069,102.937448" id="Stroke-9"></path>
                    <path d="M90.3365517,146.028483 C84.0482759,142.136759 65.7131034,138.659517 45.7827586,138.659517 C20.4972414,138.659517 0,143.146414 0,148.682276 C0,154.216759 20.4972414,158.704345 45.7827586,158.704345 C45.7827586,158.704345 114.191724,159.767103 96.7662069,127.765034" id="Stroke-11"></path>
                    <path d="M90.3365517,170.856069 C84.0482759,166.964345 65.7131034,163.487103 45.7827586,163.487103 C20.4972414,163.487103 0,167.974 0,173.509862 C0,179.044345 20.4972414,183.531931 45.7827586,183.531931 C45.7827586,183.531931 114.191724,184.59469 96.7662069,152.592621" id="Stroke-13"></path>
                    <path d="M90.3365517,195.683655 C84.0482759,191.791931 65.7131034,188.31469 45.7827586,188.31469 C20.4972414,188.31469 0,192.801586 0,198.337448 C0,203.871931 20.4972414,208.359517 45.7827586,208.359517 C45.7827586,208.359517 114.191724,209.422276 96.7662069,177.420207" id="Stroke-15"></path>
                    <path d="M96.8802069,200.158966 C96.8802069,200.158966 107.509862,211.244483 89.4402069,221.873448" id="Stroke-17"></path>
                </g>
            </g>
        </g>
    </g>
</svg>