<?xml version="1.0" encoding="UTF-8"?>
<svg width="42px" height="45px" viewBox="0 0 42 45" version="1.1" xmlns="http://www.w3.org/2000/svg" xmlns:xlink="http://www.w3.org/1999/xlink">
    <!-- Generator: Sketch 64 (93537) - https://sketch.com -->
    <title>Spiral</title>
    <desc>Created with Sketch.</desc>
    <g id="MASTER" stroke="none" stroke-width="1" fill="none" fill-rule="evenodd">
        <g id="MEMORIES:-GRID" transform="translate(-1819.000000, -879.000000)" stroke-width="2">
            <g id="Toggle" transform="translate(1820.000000, 880.000000)">
                <g id="Spiral">
                    <path d="M36.1346207,20.6872552 C33.6193103,19.1305655 26.2852414,17.739669 18.3131034,17.739669 C8.19889655,17.739669 3.30402372e-13,19.5344276 3.30402372e-13,21.7487724 C3.30402372e-13,23.9625655 8.19889655,25.7576 18.3131034,25.7576 C18.3131034,25.7576 45.6766897,26.1827034 38.7064828,13.3818759" id="Stroke-1"></path>
                    <path d="M36.1346207,8.75622069 C33.6193103,7.19953103 26.2852414,5.80863448 18.3131034,5.80863448 C8.19889655,5.80863448 0,7.6033931 0,9.81773793 C0,12.031531 8.19889655,13.8265655 18.3131034,13.8265655 C18.3131034,13.8265655 39.8430345,14.0999448 39.8430345,6.38573793 C39.8430345,-0.0870896552 19.5583448,5.21767289e-05 19.5583448,5.21767289e-05" id="Stroke-3"></path>
                    <path d="M36.1346207,32.6182897 C33.6193103,31.0616 26.2852414,29.6707034 18.3131034,29.6707034 C8.19889655,29.6707034 3.30402372e-13,31.4654621 3.30402372e-13,33.6798069 C3.30402372e-13,35.8936 8.19889655,37.6886345 18.3131034,37.6886345 C18.3131034,37.6886345 45.6766897,38.1137379 38.7064828,25.3129103" id="Stroke-5"></path>
                    <path d="M38.7520828,34.4084138 C38.7520828,34.4084138 43.0039448,38.8426207 35.7760828,43.0942069" id="Stroke-7"></path>
                </g>
            </g>
        </g>
    </g>
</svg>